<?xml version="1.0" standalone="no"?>
<!DOCTYPE svg PUBLIC "-//W3C//DTD SVG 20010904//EN"
 "http://www.w3.org/TR/2001/REC-SVG-20010904/DTD/svg10.dtd">
<svg version="1.0" xmlns="http://www.w3.org/2000/svg"
 width="225.000000pt" height="225.000000pt" viewBox="0 0 225.000000 225.000000"
 preserveAspectRatio="xMidYMid meet">

<g transform="translate(0.000000,225.000000) scale(0.100000,-0.100000)"
fill="#000000" stroke="none">
<path d="M1105 1580 c-126 -26 -248 -93 -288 -158 -13 -20 -94 -159 -181 -309
l-157 -272 52 -91 52 -91 106 3 106 3 36 63 c20 35 39 65 41 68 3 2 22 -27 44
-66 l39 -70 105 0 106 0 151 263 c83 145 156 279 161 298 9 34 9 34 16 8 13
-47 -14 -109 -141 -330 -69 -120 -122 -222 -118 -228 4 -7 47 -11 108 -11
l103 0 77 133 c42 74 83 151 91 173 12 33 15 36 22 20 12 -31 -13 -104 -72
-208 -31 -54 -53 -102 -49 -108 4 -6 49 -10 110 -10 l103 0 19 48 c39 101 39
101 -182 487 -186 325 -203 351 -240 370 -45 22 -153 29 -220 15z m131 -31
c26 -7 60 -26 81 -45 34 -32 35 -37 31 -86 -4 -46 -23 -85 -147 -298 -79 -135
-146 -249 -150 -253 -5 -4 -38 -7 -75 -5 l-66 3 60 104 c33 57 60 110 60 118
0 10 -24 13 -107 13 l-108 0 -69 -120 -69 -120 -69 0 c-59 0 -69 2 -64 15 3 9
74 134 157 278 96 165 168 277 194 302 86 85 225 123 341 94z m-527 -783 c17
-29 31 -56 31 -60 0 -3 -31 -6 -68 -6 l-69 0 -29 52 c-16 29 -30 56 -32 60 -2
5 28 8 66 8 l71 0 30 -54z m348 42 c5 -7 22 -34 37 -60 l27 -48 -73 0 -73 0
-33 60 -33 60 69 0 c44 0 73 -5 79 -12z"/>
<path d="M1009 1391 c-31 -20 -54 -46 -76 -88 -18 -33 -30 -63 -26 -66 3 -4
53 -7 109 -7 l104 0 30 53 c17 28 33 62 36 75 17 65 -95 86 -177 33z"/>
</g>
</svg>
